<svg width="266" height="160" viewBox="0 0 266 160" fill="none" xmlns="http://www.w3.org/2000/svg">
<g clip-path="url(#clip0_17_415)">
<path d="M13.8783 159.573C13.8605 159.494 12.1395 151.647 15.6543 145.128C19.169 138.611 26.6714 135.736 26.7468 135.708L27.0897 135.579L27.1707 135.936C27.1885 136.015 28.9095 143.863 25.3948 150.381C21.8802 156.899 14.3776 159.773 14.3022 159.802L13.9592 159.93L13.8783 159.573ZM26.6195 136.451C25.1167 137.098 19.1855 139.927 16.2171 145.432C13.2483 150.937 14.144 157.448 14.4296 159.058C15.9318 158.413 21.8606 155.588 24.832 150.077C27.8006 144.572 26.9052 138.062 26.6195 136.451Z" fill="#F1F1F1"/>
<path d="M22.7088 148.094C16.3927 151.894 13.9602 159.442 13.9602 159.442C13.9602 159.442 21.7681 160.829 28.0842 157.029C34.4003 153.229 36.8329 145.681 36.8329 145.681C36.8329 145.681 29.0249 144.294 22.7088 148.094Z" fill="#F1F1F1"/>
<path d="M118.358 87.1774C118.455 86.6802 118.441 86.168 118.318 85.6767C118.195 85.1855 117.965 84.7273 117.646 84.3342C117.327 83.9412 116.925 83.623 116.469 83.402C116.014 83.181 115.515 83.0626 115.009 83.0551L112.084 75.6996L107.181 76.3868L111.457 86.7163C111.501 87.5677 111.855 88.3736 112.454 88.9811C113.052 89.5885 113.852 89.9555 114.703 90.0123C115.554 90.0692 116.396 89.8119 117.069 89.2894C117.743 88.7669 118.202 88.0155 118.358 87.1774Z" fill="#9F616A"/>
<path d="M109.325 84.5929L107.805 80.9698L98.3374 62.9474L98.8522 29.5994L98.951 29.5863C105.009 28.7859 109.108 56.7003 109.28 57.8891L115.262 78.3481L116.686 82.8577L109.325 84.5929Z" fill="#6C63FF"/>
<path d="M94.7768 154.912L99.3801 154.912L101.57 137.156L94.7758 137.157L94.7768 154.912Z" fill="#9F616A"/>
<path d="M93.6024 153.409L102.668 153.409H102.669C104.201 153.409 105.67 154.018 106.754 155.101C107.837 156.185 108.446 157.654 108.446 159.186V159.374L93.6027 159.375L93.6024 153.409Z" fill="#2F2E41"/>
<path d="M52.4501 147.899L56.2272 150.531L68.1757 137.215L62.6013 133.331L52.4501 147.899Z" fill="#9F616A"/>
<path d="M52.3461 145.994L59.7841 151.177L59.7844 151.178C61.0414 152.054 61.899 153.393 62.1685 154.902C62.4379 156.41 62.0972 157.964 61.2212 159.221L61.1139 159.375L48.9357 150.889L52.3461 145.994Z" fill="#2F2E41"/>
<path d="M92.2467 150.739L92.0478 117.43L89.1513 96.4856L83.7512 114.904L83.7407 114.919L64.1712 143.33L56.5565 139.472L56.5982 139.373C57.0636 138.266 68.0289 112.27 70.9763 112.27C71.2337 112.288 71.4916 112.243 71.7279 112.139C71.9641 112.035 72.1715 111.876 72.3323 111.674C73.1974 110.519 72.4929 108.068 72.4857 108.043C71.642 104.544 73.7634 103.353 74.1859 103.154L75.3224 79.6938L75.4402 79.702L106.249 81.863L104.957 111.194L102.176 149.624L102.081 149.635L92.2467 150.739Z" fill="#2F2E41"/>
<path d="M106.72 87.0615L106.587 87.0506L73.4524 84.3797L73.5342 73.4164L75.1559 44.7906L75.1651 44.7707L81.7696 30.4325L86.4514 28.3125L93.282 27.953L93.2987 27.9572L99.5324 29.5016L106.017 76.0525L106.72 87.0615Z" fill="#6C63FF"/>
<path d="M94.3523 24.2784C98.58 21.9673 100.134 16.6667 97.8227 12.439C95.5116 8.21132 90.2109 6.6576 85.9832 8.96866C81.7556 11.2797 80.2019 16.5804 82.5129 20.8081C84.824 25.0357 90.1247 26.5895 94.3523 24.2784Z" fill="#9F616A"/>
<path d="M81.3942 18.8135V15.4144C81.3942 15.4144 78.653 12.186 81.6683 11.3728C81.6683 11.3728 82.4906 3.2404 89.6176 7.0355C89.6176 7.0355 99.4858 5.40903 98.3893 11.1017C98.3893 11.1017 100.856 9.61551 100.034 13.4106L98.4435 19.5239C98.4435 19.5239 99.2116 15.4856 96.7446 14.9435L95.374 14.1302C95.374 14.1302 91.5364 17.9253 85.78 13.317C85.78 13.317 83.313 12.7282 83.5871 15.1679C83.8612 17.6076 81.3942 18.8135 81.3942 18.8135Z" fill="#2F2E41"/>
<path d="M89.2595 78.8743C89.265 78.3679 89.1594 77.8665 88.9502 77.4053C88.7409 76.9442 88.4331 76.5345 88.0484 76.2052C87.6637 75.8759 87.2115 75.6349 86.7236 75.4992C86.2357 75.3636 85.724 75.3366 85.2245 75.4201L81.0271 68.7088L76.3266 70.2649L82.3872 79.6592C82.5831 80.489 83.0766 81.2181 83.7742 81.7084C84.4717 82.1986 85.3249 82.416 86.172 82.3192C87.0191 82.2225 87.8013 81.8184 88.3703 81.1834C88.9394 80.5485 89.2557 79.7269 89.2595 78.8743Z" fill="#9F616A"/>
<path d="M78.4184 76.7588L70.8247 61.3414L70.8314 61.304C70.862 61.1333 73.9188 44.1609 76.2566 37.9224C78.6092 31.6443 81.8296 30.3838 81.9655 30.3332L82.0334 30.308L84.9209 33.0776L80.9211 59.7756L85.2326 72.6516L78.4184 76.7588Z" fill="#6C63FF"/>
<path d="M266 3.05176e-05H251.297V14.7031H266V3.05176e-05Z" fill="#F1F1F1"/>
<path d="M150.932 57.2142H136.229V71.9173H150.932V57.2142Z" fill="#F1F1F1"/>
<path d="M144.482 65.4744H260.724V6.62726H144.482V65.4744Z" fill="white"/>
<path d="M261.683 66.4333H143.523V5.66833H261.683V66.4333ZM145.441 64.5155H259.765V7.58613H145.441V64.5155Z" fill="#E5E5E5"/>
<path d="M247.87 27.2697H158.435V30.2357H247.87V27.2697Z" fill="#E5E5E5"/>
<path d="M247.87 34.4624H158.435V37.4284H247.87V34.4624Z" fill="#E5E5E5"/>
<path d="M247.87 45.0827H231.249V47.6566H247.87V45.0827Z" fill="#6C63FF"/>
<path d="M122.1 159.917H0.319632C0.234861 159.917 0.153561 159.884 0.0936179 159.824C0.0336752 159.764 0 159.682 0 159.598C0 159.513 0.0336752 159.431 0.0936179 159.372C0.153561 159.312 0.234861 159.278 0.319632 159.278H122.1C122.184 159.278 122.266 159.312 122.326 159.372C122.386 159.431 122.419 159.513 122.419 159.598C122.419 159.682 122.386 159.764 122.326 159.824C122.266 159.884 122.184 159.917 122.1 159.917Z" fill="#CBCBCB"/>
</g>
<defs>
<clipPath id="clip0_17_415">
<rect width="266" height="159.93" fill="white"/>
</clipPath>
</defs>
</svg>
